<svg xmlns="http://www.w3.org/2000/svg" width="1200" height="675" viewBox="0 0 1200 675">

<defs>
  <linearGradient id="bg" x1="0" y1="0" x2="1" y2="1">
    <stop offset="0" stop-color="#06172e"/>
    <stop offset=".50" stop-color="#0a3158"/>
    <stop offset="1" stop-color="#0d5278"/>
  </linearGradient>
  <radialGradient id="halo" cx=".66" cy=".34" r=".58">
    <stop offset="0" stop-color="#39c8ff" stop-opacity=".17"/>
    <stop offset=".58" stop-color="#39c8ff" stop-opacity=".05"/>
    <stop offset="1" stop-color="#39c8ff" stop-opacity="0"/>
  </radialGradient>
  <linearGradient id="fuse" x1="0" y1="0" x2="0" y2="1">
    <stop offset="0" stop-color="#ffffff"/>
    <stop offset=".36" stop-color="#edf8fc"/>
    <stop offset=".66" stop-color="#bddce8"/>
    <stop offset="1" stop-color="#759fb6"/>
  </linearGradient>
  <linearGradient id="blue" x1="0" y1="0" x2="1" y2="1">
    <stop offset="0" stop-color="#0b4eaa"/>
    <stop offset=".55" stop-color="#0c8ed4"/>
    <stop offset="1" stop-color="#56d2ff"/>
  </linearGradient>
  <linearGradient id="engine" x1="0" y1="0" x2="1" y2="1">
    <stop offset="0" stop-color="#e9f7fc"/>
    <stop offset=".34" stop-color="#9ed4e8"/>
    <stop offset=".62" stop-color="#1f7cb6"/>
    <stop offset="1" stop-color="#06395f"/>
  </linearGradient>
  <linearGradient id="glass" x1="0" y1="0" x2="1" y2="1">
    <stop stop-color="#061423"/>
    <stop offset="1" stop-color="#255a7c"/>
  </linearGradient>
  <filter id="shadow" x="-40%" y="-40%" width="180%" height="180%">
    <feDropShadow dx="0" dy="15" stdDeviation="13" flood-color="#000811" flood-opacity=".44"/>
  </filter>
  <filter id="blur"><feGaussianBlur stdDeviation="18"/></filter>
</defs>


<rect width="1200" height="675" rx="34" fill="url(#bg)"/>
<ellipse cx="720" cy="250" rx="420" ry="260" fill="url(#halo)"/>
<circle cx="210" cy="118" r="3" fill="#7fddff" opacity=".45"/>
<circle cx="350" cy="98" r="2.5" fill="#7fddff" opacity=".34"/>
<circle cx="535" cy="116" r="3.5" fill="#7fddff" opacity=".44"/>
<circle cx="735" cy="92" r="2.5" fill="#7fddff" opacity=".36"/>
<circle cx="930" cy="116" r="3.5" fill="#7fddff" opacity=".46"/>
<path d="M110 518 H1090" stroke="#5dd0fb" stroke-width="2" opacity=".13"/>
<path d="M170 548 H1030" stroke="#5dd0fb" stroke-width="1" opacity=".08"/>
<ellipse cx="620" cy="518" rx="360" ry="34" fill="#000711" opacity=".34" filter="url(#blur)"/>
<ellipse cx="620" cy="508" rx="315" ry="18" fill="#52cdfb" opacity=".075"/>


<g filter="url(#shadow)">
  <path d="M250 345 L203 183 L260 191 L354 337 Z" fill="url(#blue)"/>
  <path d="M269 213 C295 224 319 246 338 279 C313 266 287 265 263 277 Z" fill="#6bd8ff" opacity=".82"/>
  <path d="M269 355 L145 319 L164 344 L304 375 Z" fill="#92d0e6"/>
  <path d="M556 357 L995 488 L1035 468 L660 346 Z" fill="#8acbe1"/>
  <path d="M984 477 l42 -71 l10 63 l-20 22 z" fill="#39b7ea"/>
  <path d="M558 356 L208 517 L346 521 L690 361 Z" fill="#acdcea"/>
  <path d="M263 314 C323 279 420 276 534 279 L904 282 C965 283 1014 303 1042 328 C1018 353 966 367 889 368 L387 376 C329 375 286 363 260 344 C246 334 247 323 263 314 Z" fill="url(#fuse)"/>
  <path d="M287 345 C470 334 680 340 940 352" fill="none" stroke="#0c63b6" stroke-width="22"/>
  <path d="M291 354 C490 347 704 352 927 359" fill="none" stroke="#42cdf6" stroke-width="8"/>
  <path d="M865 294 L989 304 L1036 327 L963 345 L864 326 Z" fill="url(#glass)"/>
  <path d="M395 303 H846" stroke="#0c3b58" stroke-width="7" stroke-linecap="round" stroke-dasharray="4 15" opacity=".76"/>
  <g transform="translate(318 302) scale(.55)"><path d="M0 0 C21 -19 45 -22 69 -10 C47 -9 28 2 15 19 C39 4 65 7 91 20 C61 31 35 29 13 21 C4 18 -1 8 0 0 Z" fill="#dff8ff" opacity=".92"/></g>

<g filter="url(#shadow)">
  <ellipse cx="491" cy="416" rx="52" ry="28" fill="#020a14" opacity=".36"/>
  <ellipse cx="491" cy="404" rx="44" ry="23" fill="url(#engine)"/>
  <ellipse cx="486" cy="404" rx="34" ry="18" fill="#08223a"/>
  <ellipse cx="483" cy="404" rx="26" ry="14" fill="#5bcfff" opacity=".54"/>

</g>


<g filter="url(#shadow)">
  <ellipse cx="758" cy="416" rx="52" ry="28" fill="#020a14" opacity=".36"/>
  <ellipse cx="758" cy="404" rx="44" ry="23" fill="url(#engine)"/>
  <ellipse cx="753" cy="404" rx="34" ry="18" fill="#08223a"/>
  <ellipse cx="750" cy="404" rx="26" ry="14" fill="#5bcfff" opacity=".54"/>

</g>

</g>

<path d="M80 574 C350 543 820 562 1120 524" fill="none" stroke="#24b9ef" stroke-width="2" opacity=".16"/>
<path d="M120 596 C400 569 820 582 1080 552" fill="none" stroke="#7cddff" stroke-width="1" opacity=".08"/>
<text x="1092" y="615" text-anchor="end" fill="#8edfff" opacity=".34" font-family="Arial,sans-serif" font-size="26" letter-spacing="5">A333</text>
</svg>
