<svg xmlns="http://www.w3.org/2000/svg" width="1200" height="675" viewBox="0 0 1200 675">

<defs>
  <linearGradient id="bg" x1="0" y1="0" x2="1" y2="1">
    <stop offset="0" stop-color="#06172e"/>
    <stop offset=".50" stop-color="#0a3158"/>
    <stop offset="1" stop-color="#0d5278"/>
  </linearGradient>
  <radialGradient id="halo" cx=".66" cy=".34" r=".58">
    <stop offset="0" stop-color="#39c8ff" stop-opacity=".17"/>
    <stop offset=".58" stop-color="#39c8ff" stop-opacity=".05"/>
    <stop offset="1" stop-color="#39c8ff" stop-opacity="0"/>
  </radialGradient>
  <linearGradient id="fuse" x1="0" y1="0" x2="0" y2="1">
    <stop offset="0" stop-color="#ffffff"/>
    <stop offset=".36" stop-color="#edf8fc"/>
    <stop offset=".66" stop-color="#bddce8"/>
    <stop offset="1" stop-color="#759fb6"/>
  </linearGradient>
  <linearGradient id="blue" x1="0" y1="0" x2="1" y2="1">
    <stop offset="0" stop-color="#0b4eaa"/>
    <stop offset=".55" stop-color="#0c8ed4"/>
    <stop offset="1" stop-color="#56d2ff"/>
  </linearGradient>
  <linearGradient id="engine" x1="0" y1="0" x2="1" y2="1">
    <stop offset="0" stop-color="#e9f7fc"/>
    <stop offset=".34" stop-color="#9ed4e8"/>
    <stop offset=".62" stop-color="#1f7cb6"/>
    <stop offset="1" stop-color="#06395f"/>
  </linearGradient>
  <linearGradient id="glass" x1="0" y1="0" x2="1" y2="1">
    <stop stop-color="#061423"/>
    <stop offset="1" stop-color="#255a7c"/>
  </linearGradient>
  <filter id="shadow" x="-40%" y="-40%" width="180%" height="180%">
    <feDropShadow dx="0" dy="15" stdDeviation="13" flood-color="#000811" flood-opacity=".44"/>
  </filter>
  <filter id="blur"><feGaussianBlur stdDeviation="18"/></filter>
</defs>


<rect width="1200" height="675" rx="34" fill="url(#bg)"/>
<ellipse cx="720" cy="250" rx="420" ry="260" fill="url(#halo)"/>
<circle cx="210" cy="118" r="3" fill="#7fddff" opacity=".45"/>
<circle cx="350" cy="98" r="2.5" fill="#7fddff" opacity=".34"/>
<circle cx="535" cy="116" r="3.5" fill="#7fddff" opacity=".44"/>
<circle cx="735" cy="92" r="2.5" fill="#7fddff" opacity=".36"/>
<circle cx="930" cy="116" r="3.5" fill="#7fddff" opacity=".46"/>
<path d="M110 518 H1090" stroke="#5dd0fb" stroke-width="2" opacity=".13"/>
<path d="M170 548 H1030" stroke="#5dd0fb" stroke-width="1" opacity=".08"/>
<ellipse cx="620" cy="518" rx="360" ry="34" fill="#000711" opacity=".34" filter="url(#blur)"/>
<ellipse cx="620" cy="508" rx="315" ry="18" fill="#52cdfb" opacity=".075"/>


<g filter="url(#shadow)">
  <path d="M258 341 L219 184 L273 195 L353 334 Z" fill="url(#blue)"/>
  <path d="M274 215 C299 227 319 247 337 278 C314 267 290 267 267 279 Z" fill="#6fd8ff" opacity=".82"/>
  <path d="M558 353 C720 406 873 459 1009 495 L1044 473 C877 407 733 365 659 344 Z" fill="#89cbe2"/>
  <path d="M996 486 l36 -79 l15 66 l-21 25 z" fill="#41bce9"/>
  <path d="M558 352 C453 403 326 467 212 522 L356 526 C480 465 573 413 692 360 Z" fill="#b4dfec"/>
  <path d="M270 313 C334 280 427 276 541 279 L908 282 C975 283 1024 301 1051 327 C1028 353 976 366 900 367 L394 375 C333 374 292 362 267 344 C251 333 253 322 270 313 Z" fill="url(#fuse)"/>
  <path d="M294 343 C493 332 688 340 948 352" fill="none" stroke="#0b62b4" stroke-width="21"/>
  <path d="M298 352 C506 345 708 351 937 358" fill="none" stroke="#42cdf6" stroke-width="7"/>
  <path d="M870 291 C930 288 991 300 1038 324 C1003 347 949 351 892 340 C869 327 861 308 870 291 Z" fill="#071522"/>
  <path d="M889 296 C940 297 982 305 1013 319 C985 329 951 332 915 327 Z" fill="#2b5f7b"/>
  <path d="M399 302 H851" stroke="#0c3b58" stroke-width="6" stroke-linecap="round" stroke-dasharray="4 15" opacity=".74"/>
  <g transform="translate(324 301) scale(.54)"><path d="M0 0 C21 -19 45 -22 69 -10 C47 -9 28 2 15 19 C39 4 65 7 91 20 C61 31 35 29 13 21 C4 18 -1 8 0 0 Z" fill="#dff8ff" opacity=".92"/></g>

<g filter="url(#shadow)">
  <ellipse cx="503" cy="414" rx="51" ry="27" fill="#020a14" opacity=".36"/>
  <ellipse cx="503" cy="402" rx="43" ry="22" fill="url(#engine)"/>
  <ellipse cx="498" cy="402" rx="33" ry="17" fill="#08223a"/>
  <ellipse cx="495" cy="402" rx="25" ry="13" fill="#5bcfff" opacity=".54"/>

</g>


<g filter="url(#shadow)">
  <ellipse cx="764" cy="414" rx="51" ry="27" fill="#020a14" opacity=".36"/>
  <ellipse cx="764" cy="402" rx="43" ry="22" fill="url(#engine)"/>
  <ellipse cx="759" cy="402" rx="33" ry="17" fill="#08223a"/>
  <ellipse cx="756" cy="402" rx="25" ry="13" fill="#5bcfff" opacity=".54"/>

</g>

</g>

<path d="M80 574 C350 543 820 562 1120 524" fill="none" stroke="#24b9ef" stroke-width="2" opacity=".16"/>
<path d="M120 596 C400 569 820 582 1080 552" fill="none" stroke="#7cddff" stroke-width="1" opacity=".08"/>
<text x="1092" y="615" text-anchor="end" fill="#8edfff" opacity=".34" font-family="Arial,sans-serif" font-size="26" letter-spacing="5">A359</text>
</svg>
