<svg xmlns="http://www.w3.org/2000/svg" width="1200" height="675"><defs><linearGradient id="bg" x2="1" y2="1"><stop stop-color="#06172e"/><stop offset=".65" stop-color="#0a3158"/><stop offset="1" stop-color="#0d5278"/></linearGradient><linearGradient id="cover" x2="1" y2="1"><stop stop-color="#071a34"/><stop offset=".52" stop-color="#0b3158"/><stop offset="1" stop-color="#0a416d"/></linearGradient><linearGradient id="silver"><stop stop-color="#dff7ff"/><stop offset=".4" stop-color="#58c8f4"/><stop offset=".75" stop-color="#1f78aa"/><stop offset="1" stop-color="#bcecff"/></linearGradient><filter id="s"><feDropShadow dx="0" dy="22" stdDeviation="18" flood-color="#000812" flood-opacity=".55"/></filter></defs><rect width="1200" height="675" rx="34" fill="url(#bg)"/><circle cx="870" cy="160" r="230" fill="#33c7ff" opacity=".08"/><ellipse cx="600" cy="552" rx="280" ry="30" fill="#000817" opacity=".35"/><g transform="translate(285 85) rotate(-3 315 245)" filter="url(#s)"><rect width="630" height="490" rx="42" fill="url(#cover)" stroke="#0d6eaa" stroke-width="10"/><rect x="28" y="28" width="574" height="434" rx="30" fill="none" stroke="url(#silver)" stroke-width="7"/><rect x="58" y="60" width="514" height="374" rx="23" fill="#061c35" stroke="#164b73" stroke-width="3"/><path d="M172 174 C220 134 274 126 332 145 C286 148 250 169 224 204 C278 177 338 178 398 207 C336 229 273 229 219 208 C190 198 173 187 172 174 Z" fill="#4dcbff"/><text x="315" y="280" text-anchor="middle" fill="#e8f8ff" font-size="52" font-family="Arial" font-weight="700" letter-spacing="8">KVA</text><text x="315" y="325" text-anchor="middle" fill="#72cffa" font-size="19" font-family="Arial" letter-spacing="5">PILOT PASSPORT</text><path d="M190 375 H440" stroke="#2a6c95" stroke-width="3"/><circle cx="315" cy="380" r="7" fill="#63d4ff"/></g></svg>